# xmcd CD database file
#
# Track frame offsets:
#	150
#	17407
#	27820
#	47835
#	66840
#	89575
#	104345
#	122777
#	142530
#	168062
#	183580
#	202370
#
# Disc length: 2994 seconds
#
# Revision: 0
# Processed by: cddbd v1.5.2PL0 Copyright (c) Steve Scherf et al.
# Submitted via: CDex 1.51
#
DISCID=9f0bb00c
DTITLE=Lin Hai and Friends - Dancing Butterflies
DYEAR=2003
DGENRE=New Age
TTITLE0=Chasing
TTITLE1=Dancing Butterflies
TTITLE2=Image
TTITLE3=Seven Beats
TTITLE4=Beyond
TTITLE5=A raining night
TTITLE6=Wanderer
TTITLE7=Random
TTITLE8=Memory
TTITLE9=Summer
TTITLE10=Companion
TTITLE11=Cross Over
EXTD=YEAR: 2003
EXTT0=
EXTT1=
EXTT2=
EXTT3=
EXTT4=
EXTT5=
EXTT6=
EXTT7=
EXTT8=
EXTT9=
EXTT10=
EXTT11=
PLAYORDER=
